<svg width="825" height="825" viewBox="0 0 825 825" fill="none" xmlns="http://www.w3.org/2000/svg">
<rect width="825" height="825" fill="#FF5B24"/>
<path d="M534.118 241.433H664.938V595H543.209V387.405L414.915 545.501H408.854L281.065 387.405V595H162.367V241.433H296.723L414.915 395.487L534.118 241.433Z" fill="white"/>
<path d="M704.082 292.115C703.145 293.733 702.08 295.862 700.888 298.503C699.695 301.143 698.759 303.272 698.077 304.891C696.459 309.064 694.5 313.663 692.2 318.689C689.901 323.714 687.303 328.782 684.407 333.892C681.511 339.002 678.274 343.9 674.697 348.584C670.864 353.695 666.521 358.848 661.666 364.043C656.811 369.239 651.189 374.392 644.801 379.502C638.499 384.613 631.131 389.553 622.699 394.322L605.324 378.608C616.822 373.072 626.745 366.811 635.092 359.827C643.439 352.843 651.019 344.837 657.833 335.808C662.858 329.25 666.861 322.777 669.842 316.389C672.823 310.001 675.421 303.57 677.636 297.097C678.317 295.224 678.956 293.052 679.552 290.582C680.148 288.026 680.617 285.854 680.957 284.066L704.082 292.115ZM632.281 302.974C635.518 304.933 638.925 307.105 642.502 309.49C646.164 311.875 649.827 314.345 653.489 316.9C657.237 319.37 660.814 321.84 664.221 324.31C667.713 326.78 670.864 329.122 673.675 331.337C680.744 336.703 687.601 342.367 694.244 348.329C700.973 354.291 706.935 360.04 712.131 365.576L696.161 383.463C690.454 376.734 684.62 370.559 678.658 364.938C672.781 359.316 666.393 353.652 659.494 347.946C657.194 345.987 654.596 343.9 651.7 341.685C648.805 339.386 645.653 337.001 642.246 334.531C638.839 331.976 635.177 329.378 631.259 326.738C627.426 324.097 623.338 321.457 618.994 318.816L632.281 302.974ZM663.71 441.916C663.54 443.449 663.369 445.451 663.199 447.921C663.028 450.391 662.901 452.392 662.816 453.925C662.475 466.446 661.453 477.646 659.749 487.526C658.131 497.321 655.704 506.137 652.467 513.972C649.23 521.723 644.972 528.75 639.691 535.053C634.496 541.356 628.15 547.19 620.655 552.556L602.641 537.991C605.622 536.288 608.773 534.286 612.095 531.987C615.502 529.602 618.653 526.876 621.549 523.81C625.808 519.381 629.257 514.654 631.898 509.629C634.623 504.603 636.71 499.28 638.158 493.659C639.606 487.952 640.585 481.862 641.096 475.389C641.693 468.831 641.991 461.804 641.991 454.309C641.991 453.372 641.948 452.137 641.863 450.604C641.778 448.985 641.65 447.41 641.48 445.877C641.309 444.258 641.139 442.938 640.969 441.916H663.71ZM706.509 469.768C706.339 470.79 706.126 472.067 705.871 473.6C705.7 475.048 705.615 476.113 705.615 476.794C705.53 479.69 705.36 483.31 705.104 487.654C704.934 491.913 704.636 496.512 704.21 501.452C703.869 506.307 703.401 511.162 702.804 516.017C702.293 520.871 701.654 525.386 700.888 529.559C700.121 533.647 699.184 537.054 698.077 539.78C696.714 543.272 694.585 545.955 691.689 547.829C688.879 549.788 685.046 550.767 680.191 550.767C676.273 550.767 672.44 550.639 668.693 550.384C664.945 550.128 661.581 549.873 658.599 549.617L656.172 528.92C659.153 529.517 662.177 529.985 665.243 530.326C668.394 530.666 671.163 530.837 673.547 530.837C675.762 530.837 677.338 530.453 678.274 529.687C679.211 528.92 679.978 527.728 680.574 526.11C681.17 524.662 681.724 522.703 682.235 520.233C682.746 517.763 683.172 514.995 683.513 511.928C683.938 508.777 684.279 505.498 684.535 502.091C684.875 498.684 685.088 495.362 685.173 492.126C685.344 488.804 685.429 485.738 685.429 482.927H625.893C623.934 482.927 621.166 482.969 617.589 483.055C614.097 483.14 610.86 483.31 607.879 483.566V463.38C610.86 463.72 614.011 463.976 617.333 464.146C620.655 464.317 623.508 464.402 625.893 464.402H682.746C684.364 464.402 686.068 464.317 687.856 464.146C689.73 463.976 691.561 463.72 693.35 463.38L706.509 469.768Z" fill="#1D1A19"/>
</svg>
